<mxfile host="app.diagrams.net" modified="2022-08-16T06:08:59.064Z" agent="5.0 (Macintosh; Intel Mac OS X 10_15_7) AppleWebKit/537.36 (KHTML, like Gecko) Chrome/104.0.0.0 Safari/537.36" etag="YNeTL_bCBDTtRGRyogWW" version="20.2.3" type="github">
  <diagram id="McVIOMcb1xRIXEFPR1ON" name="Page-1">
    <mxGraphModel dx="1426" dy="794" grid="1" gridSize="10" guides="1" tooltips="1" connect="1" arrows="1" fold="1" page="1" pageScale="1" pageWidth="850" pageHeight="1100" math="0" shadow="0">
      <root>
        <mxCell id="0" />
        <mxCell id="1" parent="0" />
        <mxCell id="hUmYEHSh0BYOGZPkl-zU-1" value="&lt;font style=&quot;font-size: 18px;&quot;&gt;Math Gadgets&lt;/font&gt;" style="rounded=1;whiteSpace=wrap;html=1;" vertex="1" parent="1">
          <mxGeometry x="475" y="100" width="160" height="60" as="geometry" />
        </mxCell>
        <mxCell id="hUmYEHSh0BYOGZPkl-zU-2" value="&lt;font style=&quot;font-size: 16px;&quot;&gt;IsZeroGadget&lt;/font&gt;" style="rounded=1;whiteSpace=wrap;html=1;" vertex="1" parent="1">
          <mxGeometry x="40" y="190" width="160" height="50" as="geometry" />
        </mxCell>
        <mxCell id="hUmYEHSh0BYOGZPkl-zU-4" value="&lt;font style=&quot;font-size: 16px;&quot;&gt;IsEqualGadget&lt;/font&gt;" style="rounded=1;whiteSpace=wrap;html=1;" vertex="1" parent="1">
          <mxGeometry x="240" y="190" width="160" height="50" as="geometry" />
        </mxCell>
        <mxCell id="hUmYEHSh0BYOGZPkl-zU-5" value="&lt;font style=&quot;font-size: 16px;&quot;&gt;AddWordsGadget&lt;/font&gt;" style="rounded=1;whiteSpace=wrap;html=1;" vertex="1" parent="1">
          <mxGeometry x="440" y="190" width="160" height="50" as="geometry" />
        </mxCell>
        <mxCell id="hUmYEHSh0BYOGZPkl-zU-6" value="&lt;font style=&quot;font-size: 16px;&quot;&gt;MulWordsGadget&lt;/font&gt;" style="rounded=1;whiteSpace=wrap;html=1;" vertex="1" parent="1">
          <mxGeometry x="640" y="190" width="160" height="50" as="geometry" />
        </mxCell>
        <mxCell id="hUmYEHSh0BYOGZPkl-zU-7" value="&lt;font style=&quot;font-size: 16px;&quot;&gt;MulWordByU64Gadget&lt;/font&gt;" style="rounded=1;whiteSpace=wrap;html=1;" vertex="1" parent="1">
          <mxGeometry x="840" y="190" width="180" height="50" as="geometry" />
        </mxCell>
        <mxCell id="hUmYEHSh0BYOGZPkl-zU-8" value="&lt;font style=&quot;font-size: 16px;&quot;&gt;RangeCheckGadget&lt;/font&gt;" style="rounded=1;whiteSpace=wrap;html=1;" vertex="1" parent="1">
          <mxGeometry x="110" y="270" width="180" height="50" as="geometry" />
        </mxCell>
        <mxCell id="hUmYEHSh0BYOGZPkl-zU-9" value="&lt;font style=&quot;font-size: 16px;&quot;&gt;LtGadget&lt;/font&gt;" style="rounded=1;whiteSpace=wrap;html=1;" vertex="1" parent="1">
          <mxGeometry x="335" y="270" width="180" height="50" as="geometry" />
        </mxCell>
        <mxCell id="hUmYEHSh0BYOGZPkl-zU-10" value="&lt;font style=&quot;font-size: 16px;&quot;&gt;ComparisonGadget&lt;/font&gt;" style="rounded=1;whiteSpace=wrap;html=1;" vertex="1" parent="1">
          <mxGeometry x="560" y="270" width="180" height="50" as="geometry" />
        </mxCell>
        <mxCell id="hUmYEHSh0BYOGZPkl-zU-11" value="&lt;font style=&quot;font-size: 16px;&quot;&gt;PairSelectGadget&lt;/font&gt;" style="rounded=1;whiteSpace=wrap;html=1;" vertex="1" parent="1">
          <mxGeometry x="790" y="270" width="180" height="50" as="geometry" />
        </mxCell>
        <mxCell id="hUmYEHSh0BYOGZPkl-zU-12" value="&lt;font style=&quot;font-size: 16px;&quot;&gt;ConstantDivisionGadget&lt;/font&gt;" style="rounded=1;whiteSpace=wrap;html=1;" vertex="1" parent="1">
          <mxGeometry x="230" y="350" width="180" height="50" as="geometry" />
        </mxCell>
        <mxCell id="hUmYEHSh0BYOGZPkl-zU-13" value="&lt;font style=&quot;font-size: 16px;&quot;&gt;MaxGadget&lt;/font&gt;" style="rounded=1;whiteSpace=wrap;html=1;" vertex="1" parent="1">
          <mxGeometry x="450" y="350" width="180" height="50" as="geometry" />
        </mxCell>
        <mxCell id="hUmYEHSh0BYOGZPkl-zU-14" value="&lt;font style=&quot;font-size: 16px;&quot;&gt;SarWordsGadget&lt;/font&gt;" style="rounded=1;whiteSpace=wrap;html=1;fillColor=#d5e8d4;strokeColor=#82b366;" vertex="1" parent="1">
          <mxGeometry x="680" y="350" width="180" height="50" as="geometry" />
        </mxCell>
        <mxCell id="hUmYEHSh0BYOGZPkl-zU-15" value="&lt;font style=&quot;font-size: 16px;&quot;&gt;generate_lagrange_base_polynomial&lt;/font&gt;" style="rounded=1;whiteSpace=wrap;html=1;fillColor=#d5e8d4;strokeColor=#82b366;" vertex="1" parent="1">
          <mxGeometry x="400" y="430" width="310" height="50" as="geometry" />
        </mxCell>
      </root>
    </mxGraphModel>
  </diagram>
</mxfile>
